<svg width="221" height="159" fill="none" xmlns="http://www.w3.org/2000/svg"><path d="M118.522 46.734c1.138-.4 2.401-.407 3.354-.017l80.594 32.906c.868.354 1.375.994 1.375 1.734V93.94c0 .865-.692 1.742-1.81 2.293l-95.154 46.937c-1.423.702-3.209.722-4.327.047L23.51 95.513c-.618-.373-.963-.92-.963-1.529V82.195c0-1.015.95-2.029 2.371-2.528l93.604-32.933z" fill="#346CC7"/><path d="M118.431 46.242c1.138-.4 2.401-.407 3.354-.017l74.914 30.586c2.538 1.037 1.367 3.907-1.829 4.484l-87.3 15.747c-1.818.328-3.204 1.517-3.204 2.748v42.578c0 .54-.98.913-1.528.582l-79.42-47.93c-.617-.373-.962-.92-.962-1.528V81.703c0-1.015.95-2.029 2.371-2.529l93.604-32.932z" fill="#18294E"/><path d="M119.137 30.75c1.446-.791 3.35-.847 4.519-.131l79.056 48.356c1.542.944 1.155 2.781-.796 3.781l-93.501 47.94c-1.47.753-3.35.765-4.475.029L30.391 82.59c-1.43-.937-1.075-2.679.751-3.679l87.995-48.16z" fill="#FCFCFC"/><path d="M119.115 28.447c1.46-.774 3.354-.806 4.5-.078l79.419 50.441c1.521.966 1.083 2.813-.9 3.79l-94.167 46.451c-1.406.693-3.168.722-4.29.069L23.53 82.482c-1.58-.918-1.244-2.759.688-3.782l94.897-50.254z" fill="#346CC7"/><path d="M118.079 36.099c1.46-.774 3.354-.806 4.501-.078l67.011 42.56c1.52.966 1.082 2.813-.9 3.79l-79.399 39.166c-1.406.693-3.167.722-4.289.069L37.375 82.254c-1.578-.92-1.243-2.76.69-3.783l80.014-42.373z" fill="#C4D6E1"/><path d="M64.72 89.606l-16.982-9.594v-1.94L79.93 61.343l17.101 7.524v1.95l-32.31 18.788z" fill="#17284D"/><path d="M79.93 59.42l17.102 9.474L64.72 87.683l-16.983-9.594L79.93 59.421z" fill="#F0C56C"/><path d="M62.248 83.825L45.264 74.23v-1.94l32.192-16.728 17.102 7.524v1.95l-32.31 18.789z" fill="#17284D"/><path d="M77.457 53.64l17.102 9.474-32.311 18.788-16.983-9.593L77.457 53.64z" fill="#F0C56C"/><path d="M137.837 4.95l6.15 32.112-17.491-10.111 5.602-25.007 5.739 3.006z" stroke="#000" stroke-width="1.01"/><path d="M126.153 27.136l4.536-25.274 7.036 3.611 6.481 31.94-18.053-10.277z" fill="#18294E"/><path d="M154.91 37.565L102.181 67.64v36.714l52.729-30.075V37.565z" fill="#FCFCFC"/><path d="M149.261 64.916l-41.607 23.731v9.784l41.607-23.73v-9.785z" fill="#346CC7"/><path d="M125.03 20.184l29.49 17.186-52.729 30.66-29.294-17.38 52.533-30.466z" fill="#F4F7FB"/><path d="M122.505 24.883l24.104 14.047-43.099 25.06-23.944-14.206 42.939-24.901z" fill="#F0C56C"/><path fill-rule="evenodd" clip-rule="evenodd" d="M146.609 38.93l-24.104-14.047-42.94 24.901 2.702 1.603 41.53-24.084 21.922 12.144.89-.517z" fill="#17284D"/><path d="M102.05 103.94V68.274l-5.91-3.255-6.231-32.46-5.312-2.607-5.227 24.213-6.985-3.52V86.69l29.665 17.25z" fill="#18294E"/><path d="M135.632.019l-4.997 1.889 7.124 3.594 4.861-2.33-6.988-3.153z" fill="#F0C56C"/><path d="M144.206 37.252l-6.505-31.755 4.919-2.324 6.641 31.173-5.055 2.906z" fill="#FCFCFC"/><path d="M89.146 27.895l-4.92 2.05 6.287 3.416 4.646-1.913-6.013-3.553z" fill="#F0C56C"/><path d="M96.218 65.143L90.146 33.65l5.013-2.203 5.532 30.804-4.473 2.89z" fill="#FCFCFC"/><path d="M132.563 14.266L95.987 36.001l1.048 5.655 36.695-22.54s2.287-1.035 1.47-3.51c-.459-1.393-2.637-1.34-2.637-1.34z" fill="#E35D4E"/><path fill-rule="evenodd" clip-rule="evenodd" d="M164.971 55.697h-37.778v35.656c0 4.818 8.457 8.724 18.889 8.724 10.432 0 18.889-3.906 18.889-8.724V55.697z" fill="#18294E"/><ellipse rx="4.592" ry="6.068" transform="matrix(.96923 -.24615 -.01658 .99986 157.655 78.366)" fill="#346CC7"/><ellipse cx="145.953" cy="93.188" rx="19.731" ry="9.113" fill="#18294E"/><ellipse cx="146.082" cy="55.373" rx="18.889" ry="8.724" fill="#F4F7FB"/><path fill-rule="evenodd" clip-rule="evenodd" d="M146.081 53.754h-13.609v43.648c3.436 1.649 8.264 2.674 13.609 2.674V53.754z" fill="#FBFBFB"/><ellipse cx="146.082" cy="55.373" rx="16.253" ry="7.507" fill="#E35D4E"/><path fill-rule="evenodd" clip-rule="evenodd" d="M162.151 56.507c.121-.37.184-.748.184-1.134 0-4.145-7.277-7.506-16.253-7.506-8.977 0-16.254 3.36-16.254 7.506 0 .385.063.764.184 1.133 1.183-3.608 7.927-6.373 16.07-6.373 8.142 0 14.887 2.765 16.069 6.373z" fill="#18294E"/><path d="M143.061 64.718c0-1.447-.547-1.354-1.007-2.187l15.316-2.391 1.62 1.603s.377 1.942.377 2.108c0 .437 1.147 2.092-.82 2.986-1.967.894-1.629-1.132-3.05-.531-1.421.601.938 4.582 1.157 6.877.219 2.295-2.358 2.754-3.263 1.803-1.631-1.714-.671-3.594-.561-5.397.109-1.803 0-3.283-2.371-2.24-1.251.55-.9 14.093-.514 16.708.514 3.487-1.098 4.563-3.011 3.962-1.913-.601-.464-8.266.355-11.544.82-3.28.335-9.462-1.368-9.638-.87-.09-.982 1.877-.982 2.752 0 .874-.915 1.893-1.878 1.184-1.607-1.184-.001-4.247 0-6.055z" fill="#E35D4E"/><path opacity=".4" d="M142.755 64.097c-.333-.76-.269-.572-.728-1.404 0 0 4.64.082 7.749-.346 3.102-.428 8.122-1.838 8.122-1.838.144.155 1.092 1.234 1.092 1.234s-2.857.953-5.902 1.532c-3.19.608-10.333.822-10.333.822z" fill="#F4F7FB"/></svg>