<svg width="221" height="187" fill="none" xmlns="http://www.w3.org/2000/svg"><path d="M118.848 74.735c1.138-.4 2.401-.407 3.355-.017l80.594 32.906c.867.354 1.375.994 1.375 1.734v12.582c0 .865-.693 1.742-1.811 2.293l-95.154 46.937c-1.423.702-3.209.721-4.327.047l-79.044-47.703c-.618-.373-.962-.92-.962-1.529v-11.789c0-1.015.95-2.029 2.37-2.529l93.604-32.932z" fill="#346CC7"/><path d="M118.757 74.243c1.138-.4 2.401-.407 3.354-.017l74.914 30.586c2.538 1.037 1.367 3.907-1.829 4.484l-87.3 15.747c-1.817.328-3.204 1.517-3.204 2.748v42.578c0 .539-.979.913-1.528.582l-79.419-47.929c-.618-.374-.963-.92-.963-1.529v-11.789c0-1.015.95-2.029 2.371-2.529l93.604-32.932z" fill="#18294E"/><path d="M119.463 58.751c1.446-.791 3.35-.847 4.519-.131l79.056 48.356c1.542.943 1.155 2.781-.795 3.781l-93.502 47.94c-1.47.753-3.35.765-4.475.029l-73.548-48.135c-1.432-.937-1.076-2.679.75-3.679l87.995-48.16z" fill="#FCFCFC"/><path d="M119.441 56.447c1.46-.773 3.354-.805 4.501-.077l79.418 50.441c1.521.966 1.083 2.813-.9 3.791l-94.167 46.45c-1.406.693-3.168.722-4.29.069l-80.147-46.638c-1.579-.919-1.244-2.759.689-3.782l94.896-50.253z" fill="#346CC7"/><path d="M118.405 64.099c1.46-.773 3.354-.806 4.501-.077l67.011 42.56c1.521.966 1.082 2.813-.9 3.79l-79.398 39.165c-1.406.694-3.168.722-4.29.069l-67.627-39.352c-1.579-.919-1.244-2.759.688-3.782l80.015-42.373z" fill="#C4D6E1"/><path d="M135.884 10.291c1.317-.643 2.809-.642 3.821-.183.716.326 4.148 1.34 4.148 2.058l-1.902 82.006c0 .823-.658 1.656-1.721 2.18l-53.74 31.36c-.628.333-5.934-2.569-6.93-3.212-.515-.332-.75-1.145-.75-1.739v-83.85c0-.828.665-1.665 1.738-2.189l55.336-26.43z" fill="#18294E"/><path d="M142.676 12.729c2.367-1.156 5.273-.335 5.273 1.49v83.305c0 .865-.693 1.742-1.811 2.294l-56.04 27.643c-2.367 1.167-5.29.348-5.29-1.482V42.401c0-.87.7-1.751 1.828-2.302l56.04-27.37z" fill="#fff"/><path d="M143.754 12.127v11.056l-59.01 30.223V42.568c0-1.017.818-2.047 2.136-2.69l56.874-27.751z" fill="#346CC7"/><path d="M112.554 47.673c.458-.215.974-.19 1.286 0 .139.084 1.159 1.063 1.925 1.627.305.225.51.59.474.967l-2.113 22.06c0 .53-.429 1.068-1.119 1.4L95.083 84.81c-.383.185-1.961-1.308-2.324-1.657-.263-.22-.441-.42-.441-.674V58.086c0-.537.44-1.08 1.142-1.41l19.094-9.002z" fill="#18294E"/><path d="M114.958 49.456c.69-.325 1.521-.082 1.521.444v24.142c0 .513-.416 1.031-1.083 1.352l-19.132 9.202c-.69.332-1.532.091-1.532-.439V59.815c0-.518.426-1.042 1.105-1.362l19.121-8.997z" fill="#F0C56C"/><path d="M139.612 43.923l-16.39 8.791a1.673 1.673 0 01-2.464-1.474c0-1.702.942-3.264 2.447-4.058l16.225-8.56a1.681 1.681 0 012.466 1.486 4.33 4.33 0 01-2.284 3.816zm-.001 14.243l-15.802 8.469a1.673 1.673 0 01-2.464-1.475 4.59 4.59 0 012.449-4.059l15.637-8.24a1.681 1.681 0 012.465 1.488 4.33 4.33 0 01-2.285 3.817zm-1.814 16.883L94.139 97.837a1.677 1.677 0 01-2.453-1.487c0-1.717.958-3.292 2.483-4.082l43.5-22.54a1.678 1.678 0 012.45 1.49c0 1.61-.895 3.086-2.322 3.83zm-16.799 22.223L94.166 111.97a1.675 1.675 0 01-2.48-1.469c0-1.686.923-3.236 2.405-4.039l26.675-14.456a1.678 1.678 0 012.477 1.475 4.323 4.323 0 01-2.245 3.79z" fill="#C4D6E1"/><circle r="2.556" transform="matrix(.92881 -.37056 0 1 92.918 43.507)" fill="#E35D4E"/><circle r="2.556" transform="matrix(.92881 -.37056 0 1 100.451 40.004)" fill="#F8CC73"/><ellipse cx="141.298" cy="114.522" rx="24.442" ry="10.008" transform="rotate(-17.876 141.298 114.522)" fill="#fff"/><circle r="2.556" transform="matrix(.92881 -.37056 0 1 107.985 36.172)" fill="#fff"/><path d="M121.881 109.399v4.322c0 4.115 2.837 7.709 6.939 8.04 3.81.308 8.585.276 12.71-1.019 9.747-3.06 14.539-7.252 16.713-9.842 1.199-1.429 1.382-3.347.975-5.167l-1.668-7.471c-1.117-5.002-6.586-7.676-11.219-5.485l-19.872 9.395a7.996 7.996 0 00-4.578 7.227z" fill="#E35D4E"/><path d="M121.881 109.399v4.321c0 4.116 2.837 7.71 6.939 8.041.38.031-2.914-.871-2.914-7.617 0-5.168-.481-8.039 3.734-10.373 5.18-2.869 3.71-2.489 6.755-6.297l-9.936 4.698a7.993 7.993 0 00-4.578 7.227z" fill="#18294E"/><path d="M132.558 101.355c-.516-2.013.565-9.3.565-9.3l11.866-1.696c-.495 3.99 3.072 11.867-1.484 13.88-3.296 1.456-10.43-.871-10.947-2.884z" fill="#F8CD74"/><path d="M150.683 81.985c.511 7-1.994 15.932-8.028 16.373-6.034.44-12.394-4.325-12.905-11.325-.608-8.325 2.147-13.851 8.181-14.292 6.559-1.335 12.241 2.243 12.752 9.244z" fill="#FFE5B0"/><path d="M142.754 78.698c2.768-.203 5.456.09 7.294-.17 2.227-1.348 4.688-3.208 0-8.076-2.64-2.741-11.175-.407-15.876 1.423-4.701 1.83-5.702 4.222-6.687 8.62-.819 3.659.301 8.739 3.281 10.611l-.57-3.615a1.688 1.688 0 113.334-.525l.353 2.243 1.426-.104c-.001-1.22-.468-4.077-.02-5.359 1.486-4.247 5.913-4.935 7.465-5.048z" fill="#18294E"/><path d="M142.443 104.188c1.573-.363 3.081-1.974 3.32-3.189 0 0 .677 3.248.98 5.487.361 2.676.517 7.075.517 7.075s-3.259-3.394-5.627-5.372c-2.364-1.975-6.473-4.737-6.473-4.737 2.356.982 4.745 1.322 7.283.736z" fill="#fff"/><g clip-path="url(#clip0)" fill="#fff"><path d="M105.916 64.853c.857-.422 1.6-1.131 2.206-2.107.607-.976.914-1.955.914-2.911s-.307-1.632-.914-2.01c-.607-.376-1.349-.353-2.206.07-.858.423-1.6 1.131-2.207 2.107-.606.975-.914 1.955-.914 2.91 0 .957.308 1.633.915 2.01.606.377 1.349.354 2.206-.069zm5.46 2.423a7.932 7.932 0 00-.105-.86 5.742 5.742 0 00-.201-.819 2.802 2.802 0 00-.339-.69 1.566 1.566 0 00-.51-.489 1.316 1.316 0 00-.733-.152c-.284.015-.599.107-.936.273-.132.065-.26.189-.507.49l-.528.64c-.17.204-.4.43-.684.673a4.076 4.076 0 01-.836.563 2.694 2.694 0 01-.836.262c-.284.037-.514.038-.683 0a38.665 38.665 0 01-.529-.118c-.247-.058-.375-.055-.507.01a3.892 3.892 0 00-.936.65c-.284.266-.531.56-.733.875-.192.3-.364.635-.51.993-.14.346-.254.69-.338 1.023-.081.322-.149.664-.201 1.017-.052.35-.088.674-.105.965-.017.285-.026.576-.026.866 0 .754.215 1.258.639 1.5.419.237.973.19 1.646-.143l6.239-3.077a4.089 4.089 0 001.646-1.481 3.883 3.883 0 00.639-2.13c0-.291-.009-.574-.026-.84z"/></g><defs><clipPath id="clip0"><path transform="matrix(.89687 -.44229 0 1 99.53 61.044)" fill="#fff" d="M0 0h14.446v14.446H0z"/></clipPath></defs></svg>