<svg width="221" height="154" fill="none" xmlns="http://www.w3.org/2000/svg"><path d="M118.819 41.734c1.138-.4 2.401-.407 3.354-.018l80.594 32.906c.868.355 1.375.995 1.375 1.735v12.581c0 .865-.692 1.742-1.81 2.294l-95.154 46.937c-1.424.702-3.209.721-4.327.046L23.807 90.512c-.618-.373-.962-.92-.962-1.528v-11.79c0-1.015.95-2.028 2.37-2.528l93.604-32.932z" fill="#346CC7"/><path d="M118.728 41.242c1.137-.4 2.401-.407 3.354-.018l74.914 30.587c2.538 1.036 1.367 3.907-1.829 4.483l-87.3 15.747c-1.818.328-3.204 1.517-3.204 2.749v42.577c0 .54-.98.914-1.528.583l-79.42-47.93c-.618-.373-.962-.92-.962-1.529V76.703c0-1.016.95-2.03 2.37-2.53l93.605-32.931z" fill="#17284D"/><path d="M119.434 25.653c1.454-.74 3.306-.756 4.432-.04l77.502 49.328c1.495.951 1.096 2.76-.826 3.75l-92.129 47.501c-1.47.757-3.354.772-4.482.035l-76.97-50.263c-1.473-.962-1.052-2.767.876-3.747l91.597-46.564z" fill="#FCFCFC"/><path d="M119.411 23.446c1.46-.773 3.354-.806 4.501-.077l79.419 50.44c1.521.967 1.082 2.813-.9 3.791l-94.168 46.45c-1.405.694-3.167.722-4.289.069L23.826 77.482c-1.578-.919-1.243-2.76.69-3.782l94.895-50.254z" fill="#346CC7"/><path d="M118.376 31.098c1.46-.773 3.354-.806 4.501-.077l67.01 42.56c1.521.966 1.083 2.813-.9 3.79l-79.398 39.165c-1.406.694-3.167.722-4.289.069L37.672 77.253c-1.578-.919-1.243-2.759.689-3.782l80.015-42.373z" fill="#C4D6E1"/><ellipse cx="108.485" cy="91.083" rx="15.185" ry="8.038" fill="#FAF8F8"/><path d="M114.289 56.06c0-1.218 1.605-2.336 3.393-2.363l40.728-.61c1.453-.023 2.53.695 2.53 1.685v23.066c0 .722-.579 1.454-1.513 1.914l-21.962 10.817c-1.18.581-2.659.6-3.592.047l-18.766-11.124c-.525-.311-.818-.771-.818-1.284V56.06z" fill="#F0C56C"/><path d="M138.496 75.49v-5.957l3.739-1.767v6.069l-3.739 1.655z" fill="#fff"/><path d="M114.289 56.112c0-1.236 1.649-2.364 3.457-2.364h23.229c2.124 0 3.165 1.523 1.957 2.864l-6.964 7.735c-.332.368-.509.778-.509 1.177v24.791c0 .449-.811.76-1.271.489l-19.081-11.312c-.525-.311-.818-.771-.818-1.284V56.112z" fill="#18294E"/><path d="M137.734 40.029c1.218-.645 2.798-.673 3.754-.065l18.878 11.99c1.268.805.903 2.346-.751 3.161L137.449 66.05c-1.172.579-2.642.602-3.578.058l-19.057-11.09c-1.317-.766-1.038-2.301.574-3.155l22.346-11.833z" fill="#FFE5B0"/><path d="M151.689 59.126v24.33l-3.983 2.046V60.998l-22.62-14.703 4.21-1.702 22.393 14.533z" fill="#fff"/><path d="M64.563 65.697c0-1.219 1.605-2.337 3.393-2.364l24.97-.374c1.454-.022 2.53.695 2.53 1.686v14.297c0 .722-.578 1.454-1.513 1.914l-13.355 6.579c-1.18.58-2.659.6-3.592.047L65.38 80.596c-.525-.311-.818-.77-.818-1.284V65.697z" fill="#F0C56C"/><path d="M80.593 77.782v-3.944l2.477-1.171v4.02l-2.477 1.095z" fill="#fff"/><path d="M64.563 65.748c0-1.236 1.65-2.364 3.457-2.364h12.683c2.124 0 3.165 1.523 1.957 2.864l-3.569 3.964c-.331.368-.509.778-.509 1.177v15.792c0 .448-.811.76-1.27.488l-11.93-7.073c-.526-.311-.819-.771-.819-1.284V65.748z" fill="#18294E"/><path d="M79.378 54.675c1.218-.645 2.798-.672 3.755-.065l11.107 7.055c1.27.806.903 2.346-.75 3.162L80.572 71.2c-1.172.578-2.642.602-3.578.057L65.776 64.73c-1.316-.767-1.037-2.302.575-3.155l13.027-6.899z" fill="#FFE5B0"/><path d="M89.33 66.946v16.112l-2.638 1.355V68.185l-14.98-9.737 2.789-1.127 14.829 9.625zm61.913-20.783l-3.141-1.884-26.905 15.738s2.608 1.58 3.769 2.455l26.277-16.309z" fill="#fff"/><path d="M131.222 24.01c0 12.64-14.769 54.743-21.775 67.069-.733 1.29-7.88-3.74-7.88-3.74s-1.189-.643-1.575-1.181c-5.68-7.9-20.997-30.359-20.997-42.88 0-15.372 11.691-32.147 26.113-37.468 14.422-5.32 26.114 2.828 26.114 18.2z" fill="#18294E"/><path d="M139.432 28.67c0 12.64-19.703 48.43-26.708 60.757-1.187 2.089-3.511 2.797-4.523 1.391-5.68-7.9-20.996-30.359-20.996-42.88 0-15.372 11.691-32.147 26.113-37.468 14.422-5.32 26.114 2.828 26.114 18.2z" fill="#E35D4E"/><ellipse rx="19.562" ry="20.591" transform="matrix(.9382 -.34612 0 1 115.059 38.511)" fill="#C4D6E1"/><ellipse rx="19.562" ry="20.591" transform="matrix(.9382 -.34612 0 1 118.509 40.813)" fill="#FAF8F8"/><path d="M110.433 36.948l16.153-7.789v16.153l-16.153 7.789V36.948z" fill="#346CC7"/><path opacity=".5" d="M110.433 36.947V53.1l8.076-3.894V33.053l-8.076 3.894z" fill="#18294E"/><path d="M117.089 38.856v-6.162l3.108-1.611v6.348l-3.108 1.425z" fill="#FAF8F8"/></svg>