<svg width="71" height="71" fill="none" xmlns="http://www.w3.org/2000/svg"><rect x=".498" y=".109" width="70" height="70" rx="4.197" fill="#276DD2"/><circle cx="34.734" cy="31.924" r="10.94" fill="#fff" stroke="#fff" stroke-width="4.435"/><path d="M41.536 41.54l7.884 9.912" stroke="#fff" stroke-width="4.435" stroke-linecap="round"/><path d="M32.327 25.913a1.5 1.5 0 10-.964-2.84l.964 2.84zm-6.235 2.038a1.5 1.5 0 102.64 1.426l-2.64-1.426zm2.932-1.498l-1.066-1.055 1.066 1.055zm2.82-1.96l-.482-1.42h-.003l-.005.002-.01.004-.027.01-.076.028c-.06.024-.14.056-.237.1a8.068 8.068 0 00-.763.393c-.618.359-1.431.928-2.283 1.788l2.132 2.11a8.066 8.066 0 011.659-1.305 5.058 5.058 0 01.58-.29l.013-.005-.004.001-.005.002-.003.001h-.002c0 .001-.001.001-.483-1.42zm-3.886.905c-.558.563-1.023 1.207-1.337 1.683a14.154 14.154 0 00-.515.845l-.01.016a.884.884 0 01-.003.008v.001l1.319.713 1.32.714h-.001v.001l.002-.006a3.608 3.608 0 01.094-.163c.069-.117.17-.284.298-.477.262-.397.603-.86.965-1.225l-2.132-2.11z" fill="#276DD2"/></svg>