<svg width="161" height="38" fill="none" xmlns="http://www.w3.org/2000/svg"><path d="M55.329 19.39h-4.922l.593-2.9h13.404l-.593 2.9h-4.9l-2.505 12.481h-3.56l2.483-12.48zm12.754 2.066a4.458 4.458 0 011.846-1.209c.733-.249 1.59-.373 2.571-.373l-.615 3.164c-.41-.03-.674-.044-.791-.044-1.04 0-1.875.256-2.505.769-.615.513-1.033 1.311-1.253 2.395l-1.142 5.713h-3.428l2.351-11.822h3.252l-.286 1.407zm18.302-1.406l-2.351 11.82h-3.252l.22-1.164c-.982.893-2.19 1.34-3.626 1.34a5.224 5.224 0 01-2.55-.637 4.852 4.852 0 01-1.867-1.824c-.454-.806-.681-1.75-.681-2.835 0-1.303.285-2.475.857-3.515.586-1.055 1.377-1.876 2.373-2.462a6.262 6.262 0 013.296-.9c1.817 0 3.098.593 3.845 1.78l.308-1.605h3.428zm-7.955 9.162c.674 0 1.275-.16 1.802-.483a3.42 3.42 0 001.23-1.384c.294-.586.44-1.26.44-2.022 0-.806-.241-1.443-.725-1.912-.469-.468-1.128-.703-1.978-.703-.673 0-1.274.169-1.801.506a3.269 3.269 0 00-1.23 1.362c-.294.586-.44 1.26-.44 2.022 0 .805.234 1.443.703 1.911.483.47 1.15.703 2 .703zm24.049-13.645L99.227 31.87h-3.252l.242-1.186c-.996.908-2.205 1.362-3.626 1.362a5.224 5.224 0 01-2.549-.637 4.852 4.852 0 01-1.868-1.824c-.454-.806-.68-1.75-.68-2.835 0-1.303.285-2.475.856-3.515.586-1.055 1.377-1.876 2.373-2.462a6.262 6.262 0 013.296-.9c.865 0 1.62.146 2.264.439a3.57 3.57 0 011.56 1.297l1.208-6.043h3.428zm-8.833 13.645c.674 0 1.274-.16 1.802-.483a3.421 3.421 0 001.23-1.384c.293-.586.44-1.26.44-2.022 0-.806-.242-1.443-.725-1.912-.47-.468-1.128-.703-1.978-.703-.674 0-1.275.169-1.802.506a3.269 3.269 0 00-1.23 1.362c-.293.586-.44 1.26-.44 2.022 0 .805.234 1.443.703 1.911.484.47 1.15.703 2 .703zm21.609-4.131c0 .542-.066 1.143-.198 1.802h-9.053c.117 1.612 1.135 2.417 3.054 2.417.601 0 1.172-.095 1.714-.285a4.374 4.374 0 001.45-.813l1.429 2.263a6.83 6.83 0 01-2.264 1.187 8.989 8.989 0 01-2.681.395c-1.216 0-2.285-.212-3.208-.637-.908-.44-1.611-1.062-2.109-1.868-.484-.806-.725-1.736-.725-2.79 0-1.304.293-2.476.878-3.516a6.367 6.367 0 012.484-2.462c1.054-.6 2.256-.9 3.603-.9 1.143 0 2.132.212 2.967.637a4.536 4.536 0 011.955 1.824c.469.79.704 1.706.704 2.746zm-5.78-2.636c-.805 0-1.486.22-2.043.659-.557.425-.952 1.018-1.187 1.78h5.867c0-.762-.241-1.355-.725-1.78-.469-.44-1.106-.66-1.912-.66zm22.324-1.187c0 1.436-.388 2.666-1.164 3.692-.777 1.025-1.853 1.75-3.23 2.175l2.68 4.746h-3.757l-2.417-4.307h-3.033l-.857 4.307h-3.581l3.076-15.381h6.263c1.904 0 3.384.417 4.438 1.252 1.055.835 1.582 2.007 1.582 3.516zm-7.339 3.472c1.187 0 2.102-.271 2.747-.813.659-.542.989-1.319.989-2.33 0-.732-.249-1.281-.747-1.648-.498-.366-1.209-.549-2.132-.549h-2.813l-1.076 5.34h3.032zm22.18-4.68l-2.352 11.821h-3.252l.242-1.274a5.24 5.24 0 01-1.758 1.098 6.184 6.184 0 01-2.088.352c-1.289 0-2.321-.351-3.098-1.055-.762-.703-1.142-1.692-1.142-2.966 0-.484.051-.96.153-1.428l1.297-6.549h3.428l-1.253 6.329a4.19 4.19 0 00-.088.857c0 1.23.66 1.846 1.978 1.846.864 0 1.575-.25 2.131-.747.572-.513.96-1.275 1.165-2.286l1.209-5.999h3.428zm10.053-.177c1.319 0 2.366.352 3.142 1.055.777.689 1.165 1.678 1.165 2.967 0 .483-.051.96-.154 1.428l-1.318 6.548H156.1l1.274-6.328c.059-.25.088-.52.088-.813 0-.616-.168-1.084-.505-1.407-.337-.322-.843-.483-1.516-.483-.879 0-1.612.256-2.198.77-.571.497-.959 1.252-1.164 2.262l-1.187 6h-3.428l2.351-11.823h3.252l-.263 1.275c1.054-.967 2.351-1.45 3.889-1.45z" fill="#fff"/><path d="M10.255 4.621h5.055c1.04 0 2.034-.426 2.752-1.178l1.29-1.35h-9.097V0h38.81L47.45 5.086a9.893 9.893 0 01-9.429 6.9H10.255v-2.47h.602c.956 0 1.876-.36 2.579-1.007l1.38-1.272h-4.561V4.62z" fill="#F9FAFC"/><path d="M21.488 15.13l6.64-3.166h-5.952L24.62.71h12.015l-7.901 36.358a.951.951 0 01-.93.749H17.737a.951.951 0 01-.93-1.154l4.68-21.532zm-2.132-5.614v2.47H9.283a3.805 3.805 0 01-3.301-1.913l-.32-.557h13.694zM0 .007h21.593v2.47H3.62A3.805 3.805 0 01.32.564L0 .007zM18.133 4.62v2.66H6.387A3.805 3.805 0 013.13 5.444l-.496-.822h15.499z" fill="#F9FAFC"/></svg>