<svg width="174" height="199" fill="none" xmlns="http://www.w3.org/2000/svg"><path d="M68.507 134.262c1.326-.466 2.798-.474 3.91-.02l45.123 18.423c1.011.413 1.602 1.159 1.602 2.022v5.804c0 1.009-.807 2.031-2.11 2.674l-52.804 26.047c-1.66.818-3.74.841-5.044.054L14.94 162.564c-.72-.435-1.122-1.072-1.122-1.782v-5.303c0-1.184 1.108-2.365 2.764-2.948l51.926-18.269z" fill="#346CC7"/><path d="M68.454 133.977c1.326-.467 2.798-.475 3.91-.021l38.501 15.72c2.959 1.208 1.594 4.554-2.132 5.226l-43.649 7.873c-2.119.382-3.734 1.769-3.734 3.204v22.586c0 .63-1.142 1.065-1.781.68l-44.683-26.966c-.72-.435-1.122-1.073-1.122-1.782v-5.304c0-1.184 1.108-2.365 2.764-2.948l51.925-18.268z" fill="#17284D"/><path d="M68.47 125.288c1.695-.862 3.854-.881 5.166-.046l42.207 26.863c1.742 1.109 1.278 3.217-.963 4.372l-49.87 25.712c-1.713.883-3.909.901-5.224.041L17.87 154.859c-1.718-1.122-1.226-3.225 1.02-4.368l49.579-25.203z" fill="#FCFCFC"/><path d="M68.444 124.043c1.702-.901 3.91-.939 5.246-.09l43.247 27.467c1.772 1.126 1.261 3.279-1.049 4.418l-51.052 25.183c-1.639.808-3.692.841-5 .08l-43.65-25.4c-1.84-1.071-1.45-3.216.802-4.409l51.456-27.249z" fill="#346CC7"/><path d="M67.843 128.489c1.701-.901 3.909-.939 5.246-.09l36.038 22.888c1.773 1.126 1.262 3.279-1.049 4.419l-42.471 20.95c-1.64.808-3.693.841-5 .08l-36.378-21.168c-1.84-1.071-1.45-3.216.803-4.408l42.81-22.671z" fill="#C4D6E1"/><ellipse cx="64.544" cy="156.551" rx="17.902" ry="7.753" fill="#fff"/><path d="M77.547 154.371c0 2.72-5.584 4.924-12.474 4.924-6.888 0-12.473-2.204-12.473-4.924 0-.996 2.05-13.347 2.05-13.347l20.187.094s2.71 10.534 2.71 13.253z" fill="#18294E"/><ellipse cx="64.741" cy="141.168" rx="10.105" ry="4.275" fill="#346CC7"/><path d="M57.742 73.981h13.856v66.909s-.948 1.665-6.928 1.665-6.928-1.665-6.928-1.665V73.981z" fill="#18294E"/><path d="M66.378 79.185h3.236v57.837c0 1.003-.562 1.83-1.552 1.991-.972.158-1.684-.577-1.684-1.561V79.185z" fill="#fff"/><path d="M123.892 83.914l-36.898 19.022v3.499l27.65 16.577c13.522 8.107 30.595 7.328 43.333-1.963 7.041-5.136 6.269-15.881-1.442-19.943l-32.643-17.192z" fill="#9F4137"/><path d="M123.884 80.8l-36.89 22.138 27.7 16.607a39.169 39.169 0 0043.222-1.948c7.051-5.143 6.234-15.906-1.512-19.925L123.884 80.8z" fill="#E35D4E"/><path opacity=".5" d="M124.639 83.36l-32.43 19.46 24.351 14.599a34.432 34.432 0 0037.995-1.713c6.199-4.521 5.48-13.982-1.329-17.515L124.639 83.36z" fill="#9F4137"/><path d="M29.897 70.957l55.932 32.381L123.715 80.4l1.135-32.185a17.486 17.486 0 00-8.88-15.843L66.741 4.588c-4.183-2.36-9.064-3.47-13.507-1.646-3.802 1.562-8.631 4.324-13.184 9.174-11.212 11.942-10.153 25.479-10.153 25.479v33.362z" fill="#E35D4E"/><path opacity=".3" d="M29.898 70.958l55.93 32.38V67.904l-55.93-30.309v33.363z" fill="#000"/><path d="M71.598 46.734v-8.738l-13.793-7.475-2.334 1.17 2.334 7.058 11.535 9.106 2.258-1.12z" fill="#18294E"/><path d="M55.474 39.915L69.267 47.9v-8.738l-13.793-7.474v8.227z" fill="#F0C56C"/><path d="M120.302 77.35L89.308 96.284V71.859a36.381 36.381 0 0116.985-30.78c6.422-4.046 14.766.675 14.605 8.263l-.596 28.008z" fill="#18294E"/><path d="M114.19 75.231l4.325-21.07-16.712-9.731-1.793 1.588s-2.304 3.57-4.346 7.18c-2.382 4.21-3.597 9.786-3.597 9.786l20.161 13.477 1.962-1.23z" fill="#C4D6E1"/><path d="M112.222 76.457l4.326-21.07-16.42-9.439s-2.54 1.596-6.432 8.475C91.315 58.634 90.1 64.21 90.1 64.21l22.123 12.247z" fill="#fff"/><path opacity=".4" d="M112.222 76.457l4.326-21.07-18.711 6.09a2.331 2.331 0 01-3.025-1.854l-.883-5.603s-.152.26-.233.403c-2.381 4.21-3.597 9.787-3.597 9.787l22.123 12.247z" fill="#C4D6E1"/><path d="M74.982 74.061c.115 1.74-.445 3.075-1.398 3.7-.305.2-2.094 1.347-2.47 1.392-.385.047.64-1.011.2-1.148-2.216-.688-4.166-3.57-4.356-6.435-.106-1.603-1.278-1.919-.458-2.596.263-.218 2.202-1.319 2.53-1.409.478-.13 1.018-.118 1.596.061 2.216.688 4.166 3.57 4.356 6.435z" fill="#18294E"/><ellipse rx="4.201" ry="5.201" transform="matrix(.95502 .29654 .0661 .99781 69.026 73.981)" fill="#E35D4E"/><ellipse rx="2.366" ry="2.929" transform="matrix(.95502 .29654 .0661 .99781 69.082 73.981)" fill="#18294E"/><path fill="#18294E" d="M69.845 38.503h1.754v29.761h-1.754z"/></svg>