<svg width="1440" height="398" fill="none" xmlns="http://www.w3.org/2000/svg"><path fill="url(#paint0_linear)" d="M-19.121-67.502h1476.24v447.714H-19.121z"/><path d="M1315.06-169.271c0-56.023 45.42-101.438 101.44-101.438 56.02 0 101.44 45.415 101.44 101.439V35.917h-202.88V-169.27zm-570.341 47.455c0-120.388 97.594-217.981 217.982-217.981v719.802H744.719v-501.821z" fill="#182B5A"/><path d="M960.641 39.607c-73.511 0-133.104-59.593-133.104-133.105H1091.5V39.607H960.641z" fill="#276DD1"/><path d="M1317.06 51.892c0-78.715 63.81-142.526 142.52-142.526v470.639h-142.52V51.892z" fill="#276DD2"/><path d="M400.507 51.892c0-78.715 63.811-142.526 142.526-142.526v470.639H400.507V51.892zM96.057 237.479c78.715 0 142.526 63.811 142.526 142.526H-17.358V237.479H96.057z" fill="#182B5A"/><path d="M1317.37 35.917c0-69.893 56.66-126.552 126.55-126.552h15.66V35.917h-142.21z" fill="#F0C56C"/><path d="M551.411 335.155c0-54.124 43.876-98 98-98h671.659v143.057H551.411v-45.057zM248.054 168.502c0-54.124-43.876-98-98-98h-416.6v163.223h514.6v-65.223z" fill="#276DD2"/><path d="M547.323 335.155c0-54.124 43.876-98 98-98h99.397v143.057H547.323v-45.057z" fill="#1750A3"/><path d="M1115.65-171.007c0-55.064 44.64-99.702 99.71-99.702 55.06 0 99.7 44.638 99.7 99.703v316.172h-199.41v-316.173z" fill="#182B5A"/><path opacity=".3" d="M1115.65-94.457h202.88V34.777h-202.88V-94.457zM.765-67.502h399.742l-.003 103.6H.763l.002-103.6z" fill="#182B5A"/><path d="M.765-67.502h109.742c-.001 57.217-46.385 103.6-103.602 103.6H.763l.002-103.6z" fill="#6899DF"/><path opacity=".7" fill="#0F438E" d="M1317.06 237.155h142.526v143.057H1317.06z"/><path d="M1116.02 136.48c0-55.602 45.07-100.676 100.67-100.676 55.61 0 100.68 45.074 100.68 100.676v100.676h-100.68c-55.6 0-100.67-45.074-100.67-100.676zm-369.323 0c0 55.601-45.074 100.676-100.676 100.676-55.602 0-100.676-45.075-100.676-100.676V35.803h100.676c55.602 0 100.676 45.075 100.676 100.677z" fill="#2C3F6D"/><path d="M689.035 139.28c0 23.756-19.258 43.014-43.014 43.014-23.756 0-43.014-19.258-43.014-43.014V96.266h43.014c23.756 0 43.014 19.258 43.014 43.014z" fill="#182B5A"/><path d="M404.236 294.797c0-45.977-37.272-83.249-83.249-83.249-45.978 0-83.25 37.272-83.25 83.249v83.249h83.25c45.977 0 83.249-37.272 83.249-83.249z" fill="#276DD1"/><path d="M354.388 294.797c0-18.447-14.955-33.401-33.402-33.401-18.447 0-33.401 14.954-33.401 33.401v33.401h33.401c18.447 0 33.402-14.954 33.402-33.401zm816.492-158.318c0-25.301 20.51-45.811 45.81-45.811 25.31 0 45.82 20.51 45.82 45.811v45.811h-45.82c-25.3 0-45.81-20.51-45.81-45.811z" fill="#182B5A"/><path d="M1116.02 380.004c-128.201 0-161.623-64.123-161.623-143.223h161.623v143.223z" fill="#1E5CB7"/><path opacity=".3" fill-rule="evenodd" clip-rule="evenodd" d="M1525.85 237.015c.01-.599.02-1.198.02-1.799 0-56.191-45.55-101.742-101.74-101.742s-101.74 45.551-101.74 101.742c0 .601 0 1.2.01 1.799h57.27c-.02-.597-.03-1.197-.03-1.799 0-24.571 19.92-44.49 44.49-44.49s44.49 19.919 44.49 44.49c0 .602-.02 1.202-.04 1.799h57.27zm-678.997 160c.01-.598.015-1.198.015-1.799 0-56.19-45.551-101.741-101.741-101.741-56.191 0-101.742 45.551-101.742 101.741 0 .601.005 1.201.016 1.799h57.272a44.72 44.72 0 01-.036-1.799c0-24.571 19.919-44.489 44.489-44.489 24.571 0 44.49 19.918 44.49 44.489 0 .603-.012 1.203-.036 1.799h57.273z" fill="#fff"/><path fill-rule="evenodd" clip-rule="evenodd" d="M-94.615 148.845c0 48.111 39.002 87.112 87.113 87.112 48.11 0 87.112-39.001 87.112-87.112s-39-87.112-87.112-87.112-87.113 39.001-87.113 87.112zm49.02 0c0 21.038 17.055 38.093 38.092 38.093 21.038 0 38.093-17.055 38.093-38.093 0-21.038-17.055-38.092-38.093-38.092-21.037 0-38.092 17.054-38.092 38.092z" fill="#6899DF"/><path fill-rule="evenodd" clip-rule="evenodd" d="M1239.41 380.004c-2.24-43.629-38.32-78.316-82.51-78.316-44.18 0-80.26 34.687-82.5 78.316h165.01zM400.507 227.141V54.207h67.01c-15.725-11.313-35.019-17.975-55.869-17.975-52.895 0-95.775 42.88-95.775 95.775 0 49.127 36.988 89.614 84.634 95.134z" fill="#F0C56C"/><path d="M962.701 116.604v120.178H842.523l120.178-120.178z" fill="#1D3F7E"/><path fill-rule="evenodd" clip-rule="evenodd" d="M998.86 29.838c0-66.62 53.22-120.81 119.47-122.366V38.477H999.16c-.199-2.854-.3-5.735-.3-8.64z" fill="#6899DF"/><path fill="#1D3F7E" d="M400.507 36.098h142.526v191.574H400.507z"/><path fill-rule="evenodd" clip-rule="evenodd" d="M83.12 380.212c.435-2.527.661-5.126.661-7.777 0-25.167-20.402-45.57-45.57-45.57-25.167 0-45.57 20.403-45.57 45.57 0 2.651.227 5.25.662 7.777H83.12z" fill="#F0C56C"/><defs><linearGradient id="paint0_linear" x1="241.072" y1="6.133" x2="425.818" y2="503.879" gradientUnits="userSpaceOnUse"><stop stop-color="#2C3F6D"/><stop offset="1" stop-color="#182B5A"/></linearGradient></defs></svg>